<?xml version="1.0" encoding="us-ascii" standalone="no"?><svg xmlns="http://www.w3.org/2000/svg" xmlns:xlink="http://www.w3.org/1999/xlink" contentStyleType="text/css" height="322px" preserveAspectRatio="none" style="width:531px;height:322px;background:#FFFFFF;" version="1.1" viewBox="0 0 531 322" width="531px" zoomAndPan="magnify"><defs/><g><!--class param--><g id="elem_param"><rect codeLine="3" fill="#F1F1F1" height="32" id="param" rx="2.5" ry="2.5" style="stroke:#181818;stroke-width:0.5;" width="76" x="234.5" y="283"/><ellipse cx="249.5" cy="299" fill="#ADD1B2" rx="11" ry="11" style="stroke:#181818;stroke-width:1.0;"/><path d="M249.1875,295.3281 Q247.7031,295.3281 246.9219,296.4375 Q246.1406,297.5469 246.1406,299.4688 Q246.1406,301.4063 246.8594,302.4688 Q247.5781,303.5313 249.1875,303.5313 Q249.9219,303.5313 250.6563,303.3594 Q251.4063,303.1875 252.2813,302.875 L252.2813,305.0469 Q251.4688,305.3594 250.6875,305.5156 Q249.9063,305.6719 248.9375,305.6719 Q247.0781,305.6719 245.8594,304.9063 Q244.6406,304.125 244.0625,302.7188 Q243.4844,301.3125 243.4844,299.4531 Q243.4844,297.6094 244.1406,296.2031 Q244.8125,294.7969 246.0781,294 Q247.3438,293.1875 249.1875,293.1875 Q250.0781,293.1875 250.9844,293.4219 Q251.9063,293.6563 252.7344,294.0469 L251.9063,296.1406 Q251.2188,295.8125 250.5313,295.5781 Q249.8438,295.3281 249.1875,295.3281 Z " fill="#000000"/><text fill="#000000" font-family="sans-serif" font-size="14" lengthAdjust="spacing" textLength="44" x="263.5" y="304.432">param</text></g><!--class paramList--><g id="elem_paramList"><rect codeLine="4" fill="#F1F1F1" height="32" id="paramList" rx="2.5" ry="2.5" style="stroke:#181818;stroke-width:0.5;" width="99" x="100" y="283"/><ellipse cx="115" cy="299" fill="#ADD1B2" rx="11" ry="11" style="stroke:#181818;stroke-width:1.0;"/><path d="M114.6875,295.3281 Q113.2031,295.3281 112.4219,296.4375 Q111.6406,297.5469 111.6406,299.4688 Q111.6406,301.4063 112.3594,302.4688 Q113.0781,303.5313 114.6875,303.5313 Q115.4219,303.5313 116.1563,303.3594 Q116.9063,303.1875 117.7813,302.875 L117.7813,305.0469 Q116.9688,305.3594 116.1875,305.5156 Q115.4063,305.6719 114.4375,305.6719 Q112.5781,305.6719 111.3594,304.9063 Q110.1406,304.125 109.5625,302.7188 Q108.9844,301.3125 108.9844,299.4531 Q108.9844,297.6094 109.6406,296.2031 Q110.3125,294.7969 111.5781,294 Q112.8438,293.1875 114.6875,293.1875 Q115.5781,293.1875 116.4844,293.4219 Q117.4063,293.6563 118.2344,294.0469 L117.4063,296.1406 Q116.7188,295.8125 116.0313,295.5781 Q115.3438,295.3281 114.6875,295.3281 Z " fill="#000000"/><text fill="#000000" font-family="sans-serif" font-size="14" lengthAdjust="spacing" textLength="67" x="129" y="304.432">paramList</text></g><!--class class--><g id="elem_class"><rect codeLine="5" fill="#F1F1F1" height="32" id="class" rx="2.5" ry="2.5" style="stroke:#181818;stroke-width:0.5;" width="65" x="7" y="191"/><ellipse cx="22" cy="207" fill="#ADD1B2" rx="11" ry="11" style="stroke:#181818;stroke-width:1.0;"/><path d="M21.6875,203.3281 Q20.2031,203.3281 19.4219,204.4375 Q18.6406,205.5469 18.6406,207.4688 Q18.6406,209.4063 19.3594,210.4688 Q20.0781,211.5313 21.6875,211.5313 Q22.4219,211.5313 23.1563,211.3594 Q23.9063,211.1875 24.7813,210.875 L24.7813,213.0469 Q23.9688,213.3594 23.1875,213.5156 Q22.4063,213.6719 21.4375,213.6719 Q19.5781,213.6719 18.3594,212.9063 Q17.1406,212.125 16.5625,210.7188 Q15.9844,209.3125 15.9844,207.4531 Q15.9844,205.6094 16.6406,204.2031 Q17.3125,202.7969 18.5781,202 Q19.8438,201.1875 21.6875,201.1875 Q22.5781,201.1875 23.4844,201.4219 Q24.4063,201.6563 25.2344,202.0469 L24.4063,204.1406 Q23.7188,203.8125 23.0313,203.5781 Q22.3438,203.3281 21.6875,203.3281 Z " fill="#000000"/><text fill="#000000" font-family="sans-serif" font-size="14" lengthAdjust="spacing" textLength="33" x="36" y="212.432">class</text></g><!--class method--><g id="elem_method"><rect codeLine="6" fill="#F1F1F1" height="32" id="method" rx="2.5" ry="2.5" style="stroke:#181818;stroke-width:0.5;" width="84" x="107.5" y="191"/><ellipse cx="122.5" cy="207" fill="#ADD1B2" rx="11" ry="11" style="stroke:#181818;stroke-width:1.0;"/><path d="M122.1875,203.3281 Q120.7031,203.3281 119.9219,204.4375 Q119.1406,205.5469 119.1406,207.4688 Q119.1406,209.4063 119.8594,210.4688 Q120.5781,211.5313 122.1875,211.5313 Q122.9219,211.5313 123.6563,211.3594 Q124.4063,211.1875 125.2813,210.875 L125.2813,213.0469 Q124.4688,213.3594 123.6875,213.5156 Q122.9063,213.6719 121.9375,213.6719 Q120.0781,213.6719 118.8594,212.9063 Q117.6406,212.125 117.0625,210.7188 Q116.4844,209.3125 116.4844,207.4531 Q116.4844,205.6094 117.1406,204.2031 Q117.8125,202.7969 119.0781,202 Q120.3438,201.1875 122.1875,201.1875 Q123.0781,201.1875 123.9844,201.4219 Q124.9063,201.6563 125.7344,202.0469 L124.9063,204.1406 Q124.2188,203.8125 123.5313,203.5781 Q122.8438,203.3281 122.1875,203.3281 Z " fill="#000000"/><text fill="#000000" font-family="sans-serif" font-size="14" lengthAdjust="spacing" textLength="52" x="136.5" y="212.432">method</text></g><!--class function--><g id="elem_function"><rect codeLine="7" fill="#F1F1F1" height="32" id="function" rx="2.5" ry="2.5" style="stroke:#181818;stroke-width:0.5;" width="88" x="226.5" y="191"/><ellipse cx="241.5" cy="207" fill="#ADD1B2" rx="11" ry="11" style="stroke:#181818;stroke-width:1.0;"/><path d="M241.1875,203.3281 Q239.7031,203.3281 238.9219,204.4375 Q238.1406,205.5469 238.1406,207.4688 Q238.1406,209.4063 238.8594,210.4688 Q239.5781,211.5313 241.1875,211.5313 Q241.9219,211.5313 242.6563,211.3594 Q243.4063,211.1875 244.2813,210.875 L244.2813,213.0469 Q243.4688,213.3594 242.6875,213.5156 Q241.9063,213.6719 240.9375,213.6719 Q239.0781,213.6719 237.8594,212.9063 Q236.6406,212.125 236.0625,210.7188 Q235.4844,209.3125 235.4844,207.4531 Q235.4844,205.6094 236.1406,204.2031 Q236.8125,202.7969 238.0781,202 Q239.3438,201.1875 241.1875,201.1875 Q242.0781,201.1875 242.9844,201.4219 Q243.9063,201.6563 244.7344,202.0469 L243.9063,204.1406 Q243.2188,203.8125 242.5313,203.5781 Q241.8438,203.3281 241.1875,203.3281 Z " fill="#000000"/><text fill="#000000" font-family="sans-serif" font-size="14" lengthAdjust="spacing" textLength="56" x="255.5" y="212.432">function</text></g><!--class BodyParser--><g id="elem_BodyParser"><rect codeLine="8" fill="#F1F1F1" height="32" id="BodyParser" rx="2.5" ry="2.5" style="stroke:#181818;stroke-width:0.5;" width="108" x="268.5" y="99"/><ellipse cx="283.5" cy="115" fill="#ADD1B2" rx="11" ry="11" style="stroke:#181818;stroke-width:1.0;"/><path d="M283.1875,111.3281 Q281.7031,111.3281 280.9219,112.4375 Q280.1406,113.5469 280.1406,115.4688 Q280.1406,117.4063 280.8594,118.4688 Q281.5781,119.5313 283.1875,119.5313 Q283.9219,119.5313 284.6563,119.3594 Q285.4063,119.1875 286.2813,118.875 L286.2813,121.0469 Q285.4688,121.3594 284.6875,121.5156 Q283.9063,121.6719 282.9375,121.6719 Q281.0781,121.6719 279.8594,120.9063 Q278.6406,120.125 278.0625,118.7188 Q277.4844,117.3125 277.4844,115.4531 Q277.4844,113.6094 278.1406,112.2031 Q278.8125,110.7969 280.0781,110 Q281.3438,109.1875 283.1875,109.1875 Q284.0781,109.1875 284.9844,109.4219 Q285.9063,109.6563 286.7344,110.0469 L285.9063,112.1406 Q285.2188,111.8125 284.5313,111.5781 Q283.8438,111.3281 283.1875,111.3281 Z " fill="#000000"/><text fill="#000000" font-family="sans-serif" font-size="14" lengthAdjust="spacing" textLength="76" x="297.5" y="120.432">BodyParser</text></g><!--class source--><g id="elem_source"><rect codeLine="9" fill="#F1F1F1" height="32" id="source" rx="2.5" ry="2.5" style="stroke:#181818;stroke-width:0.5;" width="77" x="284" y="7"/><ellipse cx="299" cy="23" fill="#ADD1B2" rx="11" ry="11" style="stroke:#181818;stroke-width:1.0;"/><path d="M298.6875,19.3281 Q297.2031,19.3281 296.4219,20.4375 Q295.6406,21.5469 295.6406,23.4688 Q295.6406,25.4063 296.3594,26.4688 Q297.0781,27.5313 298.6875,27.5313 Q299.4219,27.5313 300.1563,27.3594 Q300.9063,27.1875 301.7813,26.875 L301.7813,29.0469 Q300.9688,29.3594 300.1875,29.5156 Q299.4063,29.6719 298.4375,29.6719 Q296.5781,29.6719 295.3594,28.9063 Q294.1406,28.125 293.5625,26.7188 Q292.9844,25.3125 292.9844,23.4531 Q292.9844,21.6094 293.6406,20.2031 Q294.3125,18.7969 295.5781,18 Q296.8438,17.1875 298.6875,17.1875 Q299.5781,17.1875 300.4844,17.4219 Q301.4063,17.6563 302.2344,18.0469 L301.4063,20.1406 Q300.7188,19.8125 300.0313,19.5781 Q299.3438,19.3281 298.6875,19.3281 Z " fill="#000000"/><text fill="#000000" font-family="sans-serif" font-size="14" lengthAdjust="spacing" textLength="45" x="313" y="28.432">source</text></g><!--class name--><g id="elem_name"><rect codeLine="10" fill="#F1F1F1" height="32" id="name" rx="2.5" ry="2.5" style="stroke:#181818;stroke-width:0.5;" width="70" x="454.5" y="191"/><ellipse cx="469.5" cy="207" fill="#ADD1B2" rx="11" ry="11" style="stroke:#181818;stroke-width:1.0;"/><path d="M469.1875,203.3281 Q467.7031,203.3281 466.9219,204.4375 Q466.1406,205.5469 466.1406,207.4688 Q466.1406,209.4063 466.8594,210.4688 Q467.5781,211.5313 469.1875,211.5313 Q469.9219,211.5313 470.6563,211.3594 Q471.4063,211.1875 472.2813,210.875 L472.2813,213.0469 Q471.4688,213.3594 470.6875,213.5156 Q469.9063,213.6719 468.9375,213.6719 Q467.0781,213.6719 465.8594,212.9063 Q464.6406,212.125 464.0625,210.7188 Q463.4844,209.3125 463.4844,207.4531 Q463.4844,205.6094 464.1406,204.2031 Q464.8125,202.7969 466.0781,202 Q467.3438,201.1875 469.1875,201.1875 Q470.0781,201.1875 470.9844,201.4219 Q471.9063,201.6563 472.7344,202.0469 L471.9063,204.1406 Q471.2188,203.8125 470.5313,203.5781 Q469.8438,203.3281 469.1875,203.3281 Z " fill="#000000"/><text fill="#000000" font-family="sans-serif" font-size="14" lengthAdjust="spacing" textLength="38" x="483.5" y="212.432">name</text></g><!--class literal--><g id="elem_literal"><rect codeLine="11" fill="#F1F1F1" height="32" id="literal" rx="2.5" ry="2.5" style="stroke:#181818;stroke-width:0.5;" width="71" x="349" y="191"/><ellipse cx="364" cy="207" fill="#ADD1B2" rx="11" ry="11" style="stroke:#181818;stroke-width:1.0;"/><path d="M363.6875,203.3281 Q362.2031,203.3281 361.4219,204.4375 Q360.6406,205.5469 360.6406,207.4688 Q360.6406,209.4063 361.3594,210.4688 Q362.0781,211.5313 363.6875,211.5313 Q364.4219,211.5313 365.1563,211.3594 Q365.9063,211.1875 366.7813,210.875 L366.7813,213.0469 Q365.9688,213.3594 365.1875,213.5156 Q364.4063,213.6719 363.4375,213.6719 Q361.5781,213.6719 360.3594,212.9063 Q359.1406,212.125 358.5625,210.7188 Q357.9844,209.3125 357.9844,207.4531 Q357.9844,205.6094 358.6406,204.2031 Q359.3125,202.7969 360.5781,202 Q361.8438,201.1875 363.6875,201.1875 Q364.5781,201.1875 365.4844,201.4219 Q366.4063,201.6563 367.2344,202.0469 L366.4063,204.1406 Q365.7188,203.8125 365.0313,203.5781 Q364.3438,203.3281 363.6875,203.3281 Z " fill="#000000"/><text fill="#000000" font-family="sans-serif" font-size="14" lengthAdjust="spacing" textLength="39" x="378" y="212.432">literal</text></g><!--class val--><g id="elem_val"><rect codeLine="12" fill="#F1F1F1" height="32" id="val" rx="2.5" ry="2.5" style="stroke:#181818;stroke-width:0.5;" width="51" x="437" y="99"/><ellipse cx="452" cy="115" fill="#ADD1B2" rx="11" ry="11" style="stroke:#181818;stroke-width:1.0;"/><path d="M451.6875,111.3281 Q450.2031,111.3281 449.4219,112.4375 Q448.6406,113.5469 448.6406,115.4688 Q448.6406,117.4063 449.3594,118.4688 Q450.0781,119.5313 451.6875,119.5313 Q452.4219,119.5313 453.1563,119.3594 Q453.9063,119.1875 454.7813,118.875 L454.7813,121.0469 Q453.9688,121.3594 453.1875,121.5156 Q452.4063,121.6719 451.4375,121.6719 Q449.5781,121.6719 448.3594,120.9063 Q447.1406,120.125 446.5625,118.7188 Q445.9844,117.3125 445.9844,115.4531 Q445.9844,113.6094 446.6406,112.2031 Q447.3125,110.7969 448.5781,110 Q449.8438,109.1875 451.6875,109.1875 Q452.5781,109.1875 453.4844,109.4219 Q454.4063,109.6563 455.2344,110.0469 L454.4063,112.1406 Q453.7188,111.8125 453.0313,111.5781 Q452.3438,111.3281 451.6875,111.3281 Z " fill="#000000"/><text fill="#000000" font-family="sans-serif" font-size="14" lengthAdjust="spacing" textLength="19" x="466" y="120.432">val</text></g><!--link source to BodyParser--><g id="link_source_BodyParser"><path codeLine="14" d="M322.5,39.27 C322.5,55.82 322.5,76.08 322.5,92.66 " fill="none" id="source-to-BodyParser" style="stroke:#181818;stroke-width:1.0;"/><polygon fill="#181818" points="322.5,98.66,326.5,89.66,322.5,93.66,318.5,89.66,322.5,98.66" style="stroke:#181818;stroke-width:1.0;"/></g><!--link BodyParser to class--><g id="link_BodyParser_class"><path codeLine="16" d="M268.1324,133.289 C210.4524,151.639 127.3479,178.0618 77.8179,193.8118 " fill="none" id="BodyParser-class" style="stroke:#181818;stroke-width:1.0;"/><polygon fill="#181818" points="273.85,131.47,264.0609,130.3867,269.0853,132.9858,266.4862,138.0102,273.85,131.47" style="stroke:#181818;stroke-width:1.0;"/><polygon fill="#181818" points="72.1,195.63,81.889,196.7146,76.8649,194.1148,79.4647,189.0908,72.1,195.63" style="stroke:#181818;stroke-width:1.0;"/></g><!--link BodyParser to function--><g id="link_BodyParser_function"><path codeLine="17" d="M310.6789,136.4655 C301.1189,153.0155 291.9418,168.8849 282.3618,185.4649 " fill="none" id="BodyParser-function" style="stroke:#181818;stroke-width:1.0;"/><polygon fill="#181818" points="313.68,131.27,305.7146,137.0625,311.179,135.5996,312.6419,141.064,313.68,131.27" style="stroke:#181818;stroke-width:1.0;"/><polygon fill="#181818" points="279.36,190.66,287.3261,184.8685,281.8615,186.3307,280.3992,180.8661,279.36,190.66" style="stroke:#181818;stroke-width:1.0;"/></g><!--link BodyParser to method--><g id="link_BodyParser_method"><path codeLine="18" d="M287.4377,134.24 C255.6577,150.78 216.2126,171.2906 184.4626,187.8106 " fill="none" id="BodyParser-method" style="stroke:#181818;stroke-width:1.0;"/><polygon fill="#181818" points="292.76,131.47,282.9299,132.0768,288.3247,133.7783,286.6232,139.1732,292.76,131.47" style="stroke:#181818;stroke-width:1.0;"/><polygon fill="#181818" points="179.14,190.58,188.9702,189.9743,183.5755,188.2721,185.2776,182.8774,179.14,190.58" style="stroke:#181818;stroke-width:1.0;"/></g><!--link BodyParser to name--><g id="link_BodyParser_name"><path codeLine="19" d="M351.21,131.47 C381.89,148.01 424.9583,171.2132 455.6083,187.7332 " fill="none" id="BodyParser-to-name" style="stroke:#181818;stroke-width:1.0;"/><polygon fill="#181818" points="460.89,190.58,454.8653,182.7888,456.4886,188.2077,451.0697,189.831,460.89,190.58" style="stroke:#181818;stroke-width:1.0;"/></g><!--link BodyParser to literal--><g id="link_BodyParser_literal"><path codeLine="20" d="M333.02,131.27 C344.42,147.82 359.1065,169.1387 370.5265,185.7187 " fill="none" id="BodyParser-to-literal" style="stroke:#181818;stroke-width:1.0;"/><polygon fill="#181818" points="373.93,190.66,372.119,180.9791,371.0938,186.5423,365.5306,185.517,373.93,190.66" style="stroke:#181818;stroke-width:1.0;"/></g><!--link BodyParser to val--><g id="link_BodyParser_val"><path codeLine="21" d="M382.91,115 C402.86,115 410.81,115 430.76,115 " fill="none" id="BodyParser-val" style="stroke:#181818;stroke-width:1.0;"/><polygon fill="#181818" points="376.91,115,385.91,119,381.91,115,385.91,111,376.91,115" style="stroke:#181818;stroke-width:1.0;"/><polygon fill="#181818" points="436.76,115,427.76,111,431.76,115,427.76,119,436.76,115" style="stroke:#181818;stroke-width:1.0;"/></g><!--link function to paramList--><g id="link_function_paramList"><path codeLine="23" d="M249.7,223.47 C227.4,240.06 197.0338,262.6384 174.8438,279.1484 " fill="none" id="function-to-paramList" style="stroke:#181818;stroke-width:1.0;"/><polygon fill="#181818" points="170.03,282.73,179.6384,280.5668,174.0415,279.7454,174.8629,274.1485,170.03,282.73" style="stroke:#181818;stroke-width:1.0;"/></g><!--link paramList to param--><g id="link_paramList_param"><path codeLine="24" d="M199.47,299 C211.07,299 216.67,299 228.27,299 " fill="none" id="paramList-to-param" style="stroke:#181818;stroke-width:1.0;"/><polygon fill="#181818" points="234.27,299,225.27,295,229.27,299,225.27,303,234.27,299" style="stroke:#181818;stroke-width:1.0;"/></g><!--link method to paramList--><g id="link_method_paramList"><path codeLine="25" d="M149.5,223.27 C149.5,239.82 149.5,260.08 149.5,276.66 " fill="none" id="method-to-paramList" style="stroke:#181818;stroke-width:1.0;"/><polygon fill="#181818" points="149.5,282.66,153.5,273.66,149.5,277.66,145.5,273.66,149.5,282.66" style="stroke:#181818;stroke-width:1.0;"/></g><!--link val to name--><g id="link_val_name"><path codeLine="26" d="M467.08,131.27 C472.05,147.82 478.194,168.3336 483.174,184.9136 " fill="none" id="val-to-name" style="stroke:#181818;stroke-width:1.0;"/><polygon fill="#181818" points="484.9,190.66,486.1419,180.8898,483.4617,185.8713,478.4801,183.1911,484.9,190.66" style="stroke:#181818;stroke-width:1.0;"/></g><!--link class to paramList--><g id="link_class_paramList"><path codeLine="27" d="M58.16,223.27 C78.39,239.82 105.8467,262.2801 126.1067,278.8601 " fill="none" id="class-to-paramList" style="stroke:#181818;stroke-width:1.0;"/><polygon fill="#181818" points="130.75,282.66,126.3183,273.8646,126.8806,279.4934,121.2517,280.0557,130.75,282.66" style="stroke:#181818;stroke-width:1.0;"/></g><!--SRC=[NL193iCW3Bpp2ZwG7rGvzDn3lq31LP1O8fjKok-RW0c42vePZyPZ5cj0Wb_JBZtu3o09ePqYagj2vNlyifIOvvUnXxH4m-Ix1Pri34oVqUnlXGJ80iKDDJ09obVeR09KZjdlGA9OvJJDVOneM3xEMQaogbUFSS1jE_bKSvD1gvLk2NFfLkEpiNtEXMILHTat-8wCjhQSV3Vy0G00]--></g></svg>